<svg xmlns="http://www.w3.org/2000/svg" xmlns:xlink="http://www.w3.org/1999/xlink" width="691.046" height="680.831" viewBox="0 0 691.046 680.831"><defs><linearGradient id="a" x1="0.506" y1="0.457" x2="0.589" y2="0.305" gradientUnits="objectBoundingBox"><stop offset="0" stop-color="#43386b"/><stop offset="1" stop-color="#7662bd"/></linearGradient><linearGradient id="b" x1="37.351" y1="1.141" x2="37.351" y2="-0.1" xlink:href="#a"/><linearGradient id="c" x1="0.939" y1="-0.023" x2="0.394" y2="0.626" xlink:href="#a"/><linearGradient id="e" x1="35.21" y1="1.141" x2="35.21" y2="-0.1" xlink:href="#a"/><linearGradient id="f" x1="0.939" y1="-0.023" x2="0.394" y2="0.626" xlink:href="#a"/><linearGradient id="g" x1="0.036" y1="1.062" x2="0.847" y2="0.357" gradientUnits="objectBoundingBox"><stop offset="0" stop-color="#e37a34"/><stop offset="1" stop-color="#ffc538"/></linearGradient><linearGradient id="h" x1="0.506" y1="0.457" x2="0.589" y2="0.305" xlink:href="#a"/><linearGradient id="i" x1="48.872" y1="1.141" x2="48.872" y2="-0.1" xlink:href="#a"/><linearGradient id="j" x1="0.939" y1="-0.023" x2="0.394" y2="0.626" xlink:href="#a"/><linearGradient id="l" x1="56.826" y1="1.141" x2="56.826" y2="-0.1" xlink:href="#a"/><linearGradient id="n" x1="0.412" y1="0.69" x2="0.511" y2="0.452" xlink:href="#g"/><linearGradient id="o" x1="0" y1="0.5" x2="1" y2="0.5" xlink:href="#g"/></defs><g transform="matrix(0.469, -0.883, 0.883, 0.469, -97.997, 465.18)"><g transform="translate(441.398 278.786)"><path d="M448.27,271.172,387.814,236.6h0c-3.164-1.676-7.226-1.437-11.659,1.122-10.086,5.823-18.262,21.445-18.262,34.892,0,7.393,2.474,12.582,6.376,14.8l0,.006L424.032,321.6l1.894-3.943a18.656,18.656,0,0,0,2.673-1.28c10.085-5.823,18.262-21.445,18.262-34.892a26.772,26.772,0,0,0-.645-6.041Z" transform="translate(-357.894 -235.535)" fill="url(#a)"/><path d="M443.026,279.324c0-13.447-8.176-19.628-18.262-13.806S406.5,286.964,406.5,300.41s8.176,19.628,18.262,13.806,18.262-21.445,18.262-34.892Z" transform="translate(-346.553 -229.05)" fill="url(#b)"/><path d="M434.83,281.408c0-8.373-5.09-12.221-11.37-8.6s-11.37,13.352-11.37,21.724,5.09,12.221,11.37,8.6S434.83,289.78,434.83,281.408Z" transform="translate(-345.249 -227.155)" fill="url(#c)"/></g><g transform="translate(480.49 155.362)"><path d="M479.967,171.1l-60.456-34.57h0c-3.163-1.676-7.226-1.437-11.659,1.122-10.086,5.822-18.262,21.445-18.262,34.892,0,7.393,2.474,12.582,6.376,14.8l0,.006,59.764,34.184,1.894-3.943a18.669,18.669,0,0,0,2.673-1.28c10.086-5.823,18.262-21.445,18.262-34.892a26.779,26.779,0,0,0-.645-6.041Z" transform="translate(-389.591 -135.46)" fill="url(#a)"/><path d="M474.722,179.249c0-13.447-8.176-19.628-18.262-13.806S438.2,186.887,438.2,200.335s8.176,19.628,18.262,13.806S474.722,192.7,474.722,179.249Z" transform="translate(-378.25 -128.975)" fill="url(#e)"/><path d="M466.526,181.333c0-8.373-5.091-12.221-11.37-8.6s-11.37,13.352-11.37,21.724,5.09,12.221,11.37,8.6S466.526,189.705,466.526,181.333Z" transform="translate(-376.946 -127.08)" fill="url(#f)"/></g><path d="M290.5,301.568,458.91,79.683l46.19,26.668-90.4,275.361Z" transform="translate(67.779 6.888)" fill="url(#g)"/><g transform="translate(231.001 415.669)"><path d="M277.676,382.159l-60.456-34.57h0c-3.163-1.676-7.226-1.437-11.659,1.122C195.477,354.535,187.3,370.157,187.3,383.6c0,7.392,2.474,12.582,6.376,14.8l0,.006,59.764,34.184,1.894-3.943a18.474,18.474,0,0,0,2.673-1.281c10.086-5.823,18.262-21.445,18.262-34.892a26.767,26.767,0,0,0-.645-6.041Z" transform="translate(-187.3 -346.522)" fill="url(#h)"/><path d="M272.432,390.311c0-13.448-8.176-19.628-18.262-13.806s-18.262,21.445-18.262,34.892,8.176,19.628,18.262,13.806S272.432,403.76,272.432,390.311Z" transform="translate(-175.959 -340.037)" fill="url(#i)"/><path d="M264.236,392.4c0-8.373-5.091-12.221-11.37-8.6s-11.37,13.352-11.37,21.724,5.09,12.221,11.37,8.6S264.236,400.768,264.236,392.4Z" transform="translate(-174.655 -338.142)" fill="url(#j)"/></g><g transform="translate(85.748 420.79)"><path d="M159.9,386.311l-60.456-34.57h0c-3.163-1.676-7.226-1.437-11.659,1.122-10.086,5.823-18.262,21.445-18.262,34.892,0,7.394,2.474,12.582,6.376,14.8l0,.006,59.764,34.184,1.894-3.943a18.479,18.479,0,0,0,2.673-1.281c10.086-5.823,18.262-21.445,18.262-34.892a26.779,26.779,0,0,0-.645-6.041Z" transform="translate(-69.526 -350.674)" fill="url(#a)"/><path d="M154.657,394.463c0-13.448-8.176-19.628-18.262-13.806S118.133,402.1,118.133,415.55s8.176,19.628,18.262,13.806S154.657,407.91,154.657,394.463Z" transform="translate(-58.185 -344.189)" fill="url(#l)"/><path d="M146.462,396.547c0-8.373-5.091-12.221-11.37-8.6s-11.37,13.352-11.37,21.724,5.09,12.221,11.37,8.595S146.462,404.919,146.462,396.547Z" transform="translate(-56.881 -342.294)" fill="url(#c)"/></g><path d="M192.79,231.3l17.875-78.744L174.5,131.673l-45.956,62.91Z" transform="translate(29.991 19.019)" fill="#ffc538"/><path d="M580.849,456.317s25.732,22.2,25.532,31.79c0,0,2.564,20.3-10.666,27.942,0,0-36.178,26.118-84.022,7.036,0,0-69.176-31.884-143.567-82.239-38.742-26.224-128.4-108.985-200.206-183.039L111.3,198.152a17,17,0,0,1,20.236-26.746L470.38,352.719a287.354,287.354,0,0,1,110.468,103.6Z" transform="translate(24.879 27.832)" fill="url(#n)"/><path d="M215.631,255.148l-65.7-171.979L92.759,50.16l30.1,151.427Z" transform="translate(21.643)" fill="url(#o)"/><path d="M190.149,233.693H72.275l-31.8-18.357,100.877-25.6Z" transform="translate(9.445 32.565)" fill="#ffc538"/><path d="M512.619,403.007a287.261,287.261,0,0,0-28.529-36.584c1.64,5.512-.013,14.149-5.43,19.3-13.823,13.145-58.932,16.587-81.214,9.16-12.156-4.051-18.47-7.9-18.47-7.9l13.211,27.728s31.4,25.6,73.429,18.357C493.338,428.285,506.553,415.308,512.619,403.007Z" transform="translate(88.422 73.79)" fill="#43386b"/><path d="M292.277,304.6,0,371.159l49.924,28.824,330.193-4.154a84.18,84.18,0,0,0-37.354-58.351Z" transform="translate(0 59.365)" fill="#ffc538"/></g></svg>