<svg xmlns="http://www.w3.org/2000/svg" width="33.088" height="33.088" viewBox="0 0 33.088 33.088"><path d="M22.816,96.544l9.407-9.407a2.957,2.957,0,0,0,0-4.181l-2.091-2.091a2.957,2.957,0,0,0-4.181,0l-9.407,9.407L7.138,80.866a2.957,2.957,0,0,0-4.181,0L.866,82.956a2.957,2.957,0,0,0,0,4.181l9.407,9.407L.866,105.951a2.957,2.957,0,0,0,0,4.181l2.091,2.091a2.957,2.957,0,0,0,4.181,0l9.407-9.407,9.407,9.407a2.957,2.957,0,0,0,4.181,0l2.091-2.091a2.957,2.957,0,0,0,0-4.181Z" transform="translate(0 -80)" fill="red"/></svg>