<svg xmlns="http://www.w3.org/2000/svg" width="44" height="44" viewBox="0 0 44 44"><g transform="translate(-201 -4663)"><rect width="44" height="44" rx="22" transform="translate(201 4663)" fill="#fff" opacity="0.84"/><g transform="translate(-152 4500.99)"><g transform="translate(360 169)"><path d="M0,15.005A15.005,15.005,0,1,1,15.005,30.01,15.005,15.005,0,0,1,0,15.005ZM15.005,7c-2.173,0-2.446.01-3.3.05a5.873,5.873,0,0,0-1.942.372,4.094,4.094,0,0,0-2.341,2.34,5.845,5.845,0,0,0-.368,1.94c-.038.854-.05,1.126-.05,3.3s.01,2.445.05,3.3a5.882,5.882,0,0,0,.372,1.942,4.1,4.1,0,0,0,2.34,2.341,5.878,5.878,0,0,0,1.94.368c.854.039,1.126.05,3.3.05s2.445-.01,3.3-.05a5.881,5.881,0,0,0,1.943-.372,4.1,4.1,0,0,0,2.338-2.339,5.932,5.932,0,0,0,.37-1.941c.039-.854.05-1.126.05-3.3s-.01-2.446-.05-3.3a5.93,5.93,0,0,0-.372-1.942,4.094,4.094,0,0,0-2.341-2.34A5.89,5.89,0,0,0,18.3,7.05C17.447,7.011,17.176,7,15,7Z" fill="#234165" fill-rule="evenodd"/><path d="M22.727,16.88h.717c2.137,0,2.39.008,3.234.046a4.431,4.431,0,0,1,1.486.276,2.651,2.651,0,0,1,1.519,1.519,4.421,4.421,0,0,1,.276,1.486C30,21.05,30,21.3,30,23.439s-.009,2.389-.047,3.233a4.426,4.426,0,0,1-.276,1.486,2.651,2.651,0,0,1-1.519,1.518,4.415,4.415,0,0,1-1.486.276c-.844.039-1.1.047-3.234.047s-2.39-.009-3.234-.047a4.439,4.439,0,0,1-1.486-.276,2.651,2.651,0,0,1-1.519-1.519,4.421,4.421,0,0,1-.276-1.486c-.039-.844-.046-1.1-.046-3.234s.008-2.389.046-3.233a4.431,4.431,0,0,1,.276-1.486A2.651,2.651,0,0,1,18.725,17.2a4.42,4.42,0,0,1,1.486-.276c.738-.034,1.024-.044,2.516-.045Zm4.99,1.329a.96.96,0,1,0,.96.96.96.96,0,0,0-.96-.96Zm-4.272,1.122a4.109,4.109,0,1,0,4.11,4.11,4.109,4.109,0,0,0-4.11-4.11Z" transform="translate(-8.439 -8.436)" fill="#234165" fill-rule="evenodd"/><path d="M27.335,24.667a2.667,2.667,0,1,1-2.667,2.667,2.668,2.668,0,0,1,2.667-2.667Z" transform="translate(-12.33 -12.329)" fill="#234165" fill-rule="evenodd"/></g></g></g></svg>