<svg xmlns="http://www.w3.org/2000/svg" width="40.068" height="40.068" viewBox="0 0 40.068 40.068"><g transform="translate(-360 -169)"><g transform="translate(360 169)"><path d="M0,20.034A20.034,20.034,0,1,1,20.034,40.068,20.034,20.034,0,0,1,0,20.034ZM20.034,9.349c-2.9,0-3.266.013-4.407.067a7.841,7.841,0,0,0-2.593.5,5.466,5.466,0,0,0-3.126,3.125,7.8,7.8,0,0,0-.491,2.59c-.051,1.14-.067,1.5-.067,4.407s.013,3.265.067,4.407a7.853,7.853,0,0,0,.5,2.593,5.468,5.468,0,0,0,3.125,3.126,7.847,7.847,0,0,0,2.59.491c1.14.052,1.5.067,4.407.067s3.265-.013,4.407-.067a7.851,7.851,0,0,0,2.594-.5,5.476,5.476,0,0,0,3.122-3.123,7.921,7.921,0,0,0,.494-2.591c.051-1.14.067-1.5.067-4.407s-.013-3.266-.067-4.407a7.917,7.917,0,0,0-.5-2.593A5.467,5.467,0,0,0,27.03,9.909a7.865,7.865,0,0,0-2.6-.5c-1.14-.052-1.5-.067-4.407-.067Z" fill="#fff" fill-rule="evenodd"/><path d="M24.685,16.881h.958c2.853,0,3.191.01,4.317.061a5.915,5.915,0,0,1,1.984.368,3.539,3.539,0,0,1,2.027,2.028,5.9,5.9,0,0,1,.368,1.983c.051,1.127.062,1.464.062,4.316s-.011,3.19-.062,4.316a5.909,5.909,0,0,1-.368,1.983,3.539,3.539,0,0,1-2.027,2.027,5.9,5.9,0,0,1-1.984.368c-1.127.051-1.464.062-4.317.062s-3.191-.011-4.317-.062a5.927,5.927,0,0,1-1.984-.369,3.539,3.539,0,0,1-2.028-2.027,5.9,5.9,0,0,1-.368-1.983c-.051-1.127-.061-1.464-.061-4.318s.01-3.19.061-4.316a5.915,5.915,0,0,1,.368-1.984,3.539,3.539,0,0,1,2.028-2.028,5.9,5.9,0,0,1,1.984-.369c.986-.045,1.368-.058,3.359-.06Zm6.662,1.774a1.282,1.282,0,1,0,1.282,1.282,1.282,1.282,0,0,0-1.282-1.282Zm-5.7,1.5a5.487,5.487,0,1,0,5.487,5.487,5.486,5.486,0,0,0-5.487-5.487Z" transform="translate(-5.609 -5.607)" fill="#fff" fill-rule="evenodd"/><path d="M28.229,24.667a3.561,3.561,0,1,1-3.561,3.561,3.562,3.562,0,0,1,3.561-3.561Z" transform="translate(-8.195 -8.194)" fill="#fff" fill-rule="evenodd"/></g></g></svg>