<svg xmlns="http://www.w3.org/2000/svg" width="43.475" height="36.751" viewBox="0 0 43.475 36.751"><g transform="translate(0 -39.591)"><g transform="translate(10.427 39.591)"><path d="M228.39,98.662a1.275,1.275,0,0,1-1.275,1.275h-5.163a1.275,1.275,0,1,1,0-2.55h5.163A1.275,1.275,0,0,1,228.39,98.662Z" transform="translate(-212.366 -92.48)" fill="#8df4ff"/><path d="M136.357,40.868a1.275,1.275,0,0,1-1.275,1.275H124.071a1.275,1.275,0,1,1,0-2.55h11.011A1.275,1.275,0,0,1,136.357,40.868Z" transform="translate(-122.796 -39.593)" fill="#8df4ff"/></g><g transform="translate(0 39.591)"><path d="M231.452,385.86a1.275,1.275,0,0,1-1.275,1.275h-5.162a1.275,1.275,0,1,1,0-2.55h5.162A1.274,1.274,0,0,1,231.452,385.86Z" transform="translate(-204.742 -355.291)" fill="#00e0ff"/><path d="M135.757,443.654a1.274,1.274,0,0,1-1.275,1.275H123.471a1.275,1.275,0,1,1,0-2.55h11.011A1.275,1.275,0,0,1,135.757,443.654Z" transform="translate(-111.82 -408.178)" fill="#00e0ff"/><path d="M43.475,57.967a1.773,1.773,0,0,1-1.208,1.681l-.06.019-17.3,4.907-3.2,5.1-1.475,2.347-.022.031a10.3,10.3,0,0,1-8.361,4.295h-.038a1.723,1.723,0,0,1-1.7-1.98l1.148-7.584-5.346,2.65a1.27,1.27,0,0,1-.56.132H5.32l-.034,0A1.273,1.273,0,0,1,4.06,68.286V62.138L.548,59.071A1.6,1.6,0,0,1,.52,56.684l3.54-3.242V47.647c0-.01,0-.02,0-.029,0-.027,0-.054,0-.08s0-.035.006-.052.007-.047.011-.071.008-.04.013-.06.009-.038.014-.058.014-.047.022-.07l.018-.047c.01-.025.02-.05.032-.075,0-.008.007-.018.011-.026l.008-.015c.013-.023.025-.046.039-.069s.017-.03.027-.044.025-.036.037-.054.025-.035.038-.051.022-.026.034-.04l.049-.054.033-.031c.019-.018.037-.036.057-.053l.038-.03c.02-.014.038-.03.059-.043l.049-.031.053-.032.063-.031.045-.022c.023-.01.047-.019.071-.027l.044-.016.07-.02.052-.013.062-.012.065-.009.051-.005c.026,0,.053,0,.079,0h.046l.082,0,.05.006a.691.691,0,0,1,.071.011l.06.012.059.015.069.022.048.018c.025.009.048.02.073.031l.026.012,5.346,2.65L10.1,41.572a1.723,1.723,0,0,1,1.7-1.981,10.3,10.3,0,0,1,8.4,4.295l.044.066L21.71,46.3l3.169,5.06,17.359,4.914.031.01A1.774,1.774,0,0,1,43.475,57.967Z" transform="translate(0 -39.591)" fill="#00e0ff"/></g><path d="M0,255.017A1.6,1.6,0,0,0,.549,256.2l3.512,3.067v6.147a1.273,1.273,0,0,0,1.226,1.272l.034,0h.04a1.27,1.27,0,0,0,.56-.132l5.346-2.65-1.148,7.584a1.723,1.723,0,0,0,1.7,1.98h.038a10.3,10.3,0,0,0,8.361-4.295l.022-.031,1.475-2.347,3.2-5.1,17.3-4.907.06-.019a1.773,1.773,0,0,0,1.208-1.681c0-.028,0-.056,0-.084H0Z" transform="translate(-0.001 -197.133)" fill="#009af2"/></g></svg>