<svg xmlns="http://www.w3.org/2000/svg" width="44.418" height="76.672" viewBox="0 0 44.418 76.672"><path d="M-3978.494,69.917a5.759,5.759,0,0,1,5.766-5.752,5.759,5.759,0,0,1,5.766,5.752,5.76,5.76,0,0,1-5.766,5.754A5.76,5.76,0,0,1-3978.494,69.917Zm0-13.6a5.76,5.76,0,0,1,5.766-5.753,5.76,5.76,0,0,1,5.766,5.753,5.76,5.76,0,0,1-5.766,5.753A5.76,5.76,0,0,1-3978.494,56.319Zm13.256-3.446a7.839,7.839,0,0,0-7.489-5.446A7.843,7.843,0,0,0-3980,52.282V15h21.9a35.194,35.194,0,0,1,8.429.888,20.431,20.431,0,0,1,6.423,2.816,14.257,14.257,0,0,1,4.924,5.651,18.907,18.907,0,0,1,1.743,8.409,22.46,22.46,0,0,1-1.25,7.484,15.809,15.809,0,0,1-3.6,5.934,24.479,24.479,0,0,1-3.163,2.721,18.98,18.98,0,0,1-3.808,2.118,24.209,24.209,0,0,1-4.527,1.36,28.067,28.067,0,0,1-5.476.491Zm9.77-16.3-4.56,8.928a2.841,2.841,0,0,0-.173,2.18,2.841,2.841,0,0,0,1.427,1.669,2.845,2.845,0,0,0,1.3.313,2.875,2.875,0,0,0,1.485-.413,2.861,2.861,0,0,0,1.074-1.152l4.56-8.927a2.84,2.84,0,0,0,.173-2.182,2.851,2.851,0,0,0-1.426-1.668,2.858,2.858,0,0,0-1.3-.313A2.86,2.86,0,0,0-3955.469,36.571Zm-5.054-12.43-7.491,14.667a3.9,3.9,0,0,0-.238,3,3.909,3.909,0,0,0,1.962,2.293,3.91,3.91,0,0,0,1.789.431,3.957,3.957,0,0,0,2.042-.567,3.928,3.928,0,0,0,1.476-1.583l7.49-14.667a3.894,3.894,0,0,0,.238-3,3.909,3.909,0,0,0-1.962-2.293,3.918,3.918,0,0,0-1.788-.43A3.932,3.932,0,0,0-3960.523,24.141Zm-5.66-5.362-4.56,8.929a2.836,2.836,0,0,0-.173,2.182,2.843,2.843,0,0,0,1.427,1.667,2.841,2.841,0,0,0,1.3.313,2.874,2.874,0,0,0,1.483-.412,2.859,2.859,0,0,0,1.074-1.152l4.56-8.928a2.837,2.837,0,0,0,.173-2.182,2.844,2.844,0,0,0-1.427-1.668,2.844,2.844,0,0,0-1.3-.313A2.86,2.86,0,0,0-3966.183,18.779ZM-3980,6a6,6,0,0,1,6-6,6,6,0,0,1,6,6,6,6,0,0,1-6,6A6,6,0,0,1-3980,6Z" transform="translate(3980.5 0.5)" fill="#eeebff" stroke="rgba(0,0,0,0)" stroke-width="1"/></svg>