<svg xmlns="http://www.w3.org/2000/svg" width="39" height="28" viewBox="0 0 39 28"><g transform="translate(39 28) rotate(180)" fill="#10006d"><path d="M 38.5 27.17728042602539 L 27.22991943359375 21.33358955383301 L 26.49975967407227 20.95499801635742 L 26.49975967407227 21.77746963500977 L 26.49975967407227 27.17727661132813 L 1.086214065551758 13.99987888336182 L 26.49975967407227 0.8224804997444153 L 26.49975967407227 6.222289085388184 L 26.49975967407227 7.044758796691895 L 27.22991943359375 6.666168689727783 L 38.5 0.8224769234657288 L 38.5 27.17728042602539 Z" stroke="none"/><path d="M 38 1.644948959350586 L 27.46006965637207 7.110048294067383 L 25.99975967407227 7.867238998413086 L 25.99975967407227 6.222288131713867 L 25.99975967407227 1.644952774047852 L 2.172409057617188 13.99987888336182 L 25.99975967407227 26.35480499267578 L 25.99975967407227 21.77746963500977 L 25.99975967407227 20.13251876831055 L 27.46006965637207 20.88970947265625 L 38 26.35480880737305 L 38 1.644948959350586 M 26.99975967407227 -1.9073486328125e-06 L 26.99975967407227 6.222288131713867 L 39 -1.9073486328125e-06 L 39 27.99975967407227 L 26.99975967407227 21.77746963500977 L 26.99975967407227 27.99975967407227 L 0 13.99987888336182 L 26.99975967407227 -1.9073486328125e-06 Z" stroke="none" fill="#0b0047"/></g></svg>