<svg xmlns="http://www.w3.org/2000/svg" width="39" height="28" viewBox="0 0 39 28"><g transform="translate(3980)" fill="#10006d"><path d="M -3941.500244140625 27.17724227905273 L -3952.770263671875 21.33355903625488 L -3953.50048828125 20.95496940612793 L -3953.50048828125 21.77743911743164 L -3953.50048828125 27.17723846435547 L -3978.9140625 13.99985885620117 L -3953.50048828125 0.8224799036979675 L -3953.50048828125 6.222279071807861 L -3953.50048828125 7.044748783111572 L -3952.770263671875 6.666158676147461 L -3941.500244140625 0.8224762678146362 L -3941.500244140625 27.17724227905273 Z" stroke="none"/><path d="M -3942.000244140625 26.35476875305176 L -3942.000244140625 1.644948482513428 L -3952.540283203125 7.110038757324219 L -3954.00048828125 7.867228984832764 L -3954.00048828125 6.222279071807861 L -3954.00048828125 1.644950985908508 L -3977.827880859375 13.99985885620117 L -3954.00048828125 26.35476684570313 L -3954.00048828125 21.77743911743164 L -3954.00048828125 20.13248825073242 L -3952.540283203125 20.88967895507813 L -3942.000244140625 26.35476875305176 M -3941.000244140625 27.99971961975098 L -3953.00048828125 21.77743911743164 L -3953.00048828125 27.99971961975098 L -3980.000244140625 13.99985885620117 L -3953.00048828125 -1.143798840530508e-06 L -3953.00048828125 6.222279071807861 L -3941.000244140625 -1.143798840530508e-06 L -3941.000244140625 27.99971961975098 Z" stroke="none" fill="#0b0047"/></g></svg>