<svg xmlns="http://www.w3.org/2000/svg" width="82.827" height="120.284" viewBox="0 0 82.827 120.284"><path d="M-150.185,115.191a10.815,10.815,0,0,1,3.455-14.925L-114.5,80.176A10.877,10.877,0,0,1-99.53,83.622a10.815,10.815,0,0,1-3.455,14.926l-32.235,20.089a10.832,10.832,0,0,1-5.745,1.647A10.858,10.858,0,0,1-150.185,115.191Zm-14.132-31.625a14.87,14.87,0,0,1,4.751-20.523l52.957-33a14.956,14.956,0,0,1,20.577,4.738A14.87,14.87,0,0,1-90.783,55.3l-52.957,33a14.9,14.9,0,0,1-7.9,2.265A14.93,14.93,0,0,1-164.317,83.567Zm14.132-46.9a10.815,10.815,0,0,1,3.455-14.925L-114.5,1.648A10.877,10.877,0,0,1-99.53,5.093a10.815,10.815,0,0,1-3.455,14.925l-32.235,20.09a10.835,10.835,0,0,1-5.745,1.647A10.858,10.858,0,0,1-150.185,36.663Z" transform="translate(166.588 0)" fill="#ab9e9e"/></svg>