<svg xmlns="http://www.w3.org/2000/svg" width="44" height="44" viewBox="0 0 44 44"><g transform="translate(-201 -4719)"><rect width="44" height="44" rx="22" transform="translate(201 4719)" fill="#fff" opacity="0.84"/><g transform="translate(-252 4557)"><g transform="translate(460 169)"><path d="M0,15A15,15,0,1,1,15,30,15,15,0,0,1,0,15Zm14.55-2.808.031.519-.524-.061a8.533,8.533,0,0,1-4.995-2.458L8.371,9.5l-.179.509a3.057,3.057,0,0,0,.65,3.135c.42.445.325.509-.4.244a1.237,1.237,0,0,0-.493-.117,3.8,3.8,0,0,0,.378,1.42A3.388,3.388,0,0,0,9.767,16.05l.514.243-.608.01c-.587,0-.608.01-.545.233a3.171,3.171,0,0,0,1.962,1.737l.65.222-.566.339a5.907,5.907,0,0,1-2.812.784,3.106,3.106,0,0,0-.86.08,7.984,7.984,0,0,0,2.025.932,8.863,8.863,0,0,0,6.883-.782A9.211,9.211,0,0,0,19.9,15.74a10.925,10.925,0,0,0,.714-3.177c0-.488.031-.55.619-1.134a6.922,6.922,0,0,0,.735-.815c.1-.2.094-.2-.441-.021-.892.318-1.017.276-.577-.2a3.081,3.081,0,0,0,.713-1.134c0-.031-.157.021-.336.117a5.853,5.853,0,0,1-.923.36l-.567.18-.514-.35a4.274,4.274,0,0,0-.892-.466,3.584,3.584,0,0,0-1.836.042,3.033,3.033,0,0,0-2.047,3.05Z" fill="#234165" fill-rule="evenodd"/></g></g></g></svg>