<svg xmlns="http://www.w3.org/2000/svg" width="40" height="40" viewBox="0 0 40 40"><g transform="translate(-460 -169)"><g transform="translate(460 169)"><path d="M0,20A20,20,0,1,1,20,40,20,20,0,0,1,0,20Zm19.4-3.744.042.692-.7-.081a11.377,11.377,0,0,1-6.659-3.277l-.923-.923-.238.678a4.076,4.076,0,0,0,.867,4.181c.559.593.433.678-.533.325a1.649,1.649,0,0,0-.657-.155,5.061,5.061,0,0,0,.5,1.893A4.517,4.517,0,0,0,13.022,21.4l.685.325-.811.014c-.783,0-.811.014-.727.311a4.229,4.229,0,0,0,2.616,2.316l.867.3-.755.452a7.877,7.877,0,0,1-3.749,1.045A4.141,4.141,0,0,0,10,26.267a10.645,10.645,0,0,0,2.7,1.243,11.817,11.817,0,0,0,9.177-1.043,12.282,12.282,0,0,0,4.659-5.48,14.567,14.567,0,0,0,.951-4.237c0-.65.042-.733.825-1.511a9.229,9.229,0,0,0,.979-1.087c.14-.267.126-.267-.587-.028-1.189.424-1.357.367-.769-.267a4.108,4.108,0,0,0,.951-1.511c0-.042-.21.028-.448.155a7.8,7.8,0,0,1-1.231.48l-.755.24-.685-.467a5.7,5.7,0,0,0-1.189-.621,4.779,4.779,0,0,0-2.448.057A4.043,4.043,0,0,0,19.4,16.256Z" fill="#fff" fill-rule="evenodd"/></g></g></svg>